<?xml version="1.0" encoding="UTF-8"?>
<svg xmlns="http://www.w3.org/2000/svg" xmlns:xlink="http://www.w3.org/1999/xlink" width="256pt" height="256pt" viewBox="0 0 256 256" version="1.1">
<g id="surface1">
<path style=" stroke:none;fill-rule:nonzero;fill:rgb(0%,0%,0%);fill-opacity:1;" d="M 12 33.75 L 12 49.050781 L 15.648438 48.898438 L 19.25 48.75 L 19.25 26.75 L 41.75 26.25 L 41.75 18.75 L 26.898438 18.601562 L 12 18.5 Z M 12 33.75 "/>
<path style=" stroke:none;fill-rule:nonzero;fill:rgb(0%,0%,0%);fill-opacity:1;" d="M 176.699219 19.148438 C 176.550781 19.550781 176.5 21.300781 176.601562 23.050781 L 176.75 26.25 L 199.25 26.75 L 199.25 48.75 L 206.75 48.75 L 206.75 18.75 L 191.851562 18.601562 C 179.648438 18.5 176.949219 18.601562 176.699219 19.148438 Z M 176.699219 19.148438 "/>
<path style=" stroke:none;fill-rule:nonzero;fill:rgb(0%,0%,0%);fill-opacity:1;" d="M 26.75 34.101562 C 26.601562 34.449219 26.550781 71.648438 26.601562 116.75 L 26.75 198.75 L 70.25 198.898438 L 113.800781 199 L 114.699219 200.699219 C 115.601562 202.449219 115.601562 202.449219 114.300781 205.050781 C 112.199219 209.25 112.699219 213.300781 115.75 217.300781 C 117.601562 219.75 120.601562 220.949219 125.75 221.300781 L 130.25 221.601562 L 136.648438 227.949219 L 143 234.25 L 143 251 L 225.5 251 L 225.5 229.800781 L 232.75 218.199219 C 240.898438 205.148438 242.050781 202.898438 243.5 197.25 C 244.75 192.148438 244.75 188.199219 243.449219 182.949219 C 241.398438 174.550781 237.75 168.949219 230.199219 162.5 L 225.5 158.398438 L 225.5 126.800781 C 225.5 92 225.5 92.300781 222.398438 87.398438 C 219.398438 82.648438 214.75 79.75 208.851562 79 C 206.898438 78.75 202.199219 78.5 198.5 78.5 L 191.75 78.5 L 191.75 33.75 L 109.351562 33.601562 C 43.699219 33.5 26.898438 33.601562 26.75 34.101562 Z M 71.75 60 L 71.75 78.5 L 34.25 78.5 L 34.25 41.5 L 71.75 41.5 Z M 184.25 60 L 184.25 78.5 L 166.25 78.5 C 156.351562 78.5 146.601562 78.75 144.648438 79 C 138.75 79.75 134.101562 82.648438 131.101562 87.398438 C 128.101562 92.101562 128 93 128 116.851562 L 128 138.5 L 105.550781 138.5 L 105.398438 134.851562 L 105.25 131.25 L 98.25 131.25 L 98.25 146.25 L 113.148438 146.398438 L 128 146.5 L 128 153.398438 L 119.148438 153.601562 C 111.851562 153.800781 109.949219 154 108.5 154.699219 C 106.300781 155.851562 104.101562 157.851562 103.199219 159.601562 C 102.5 160.949219 102.351562 161 98.351562 161 L 94.25 161 L 94.25 131.25 L 71.75 131.25 L 71.75 138.75 L 86.75 139.25 L 86.75 168.75 L 94.601562 168.898438 C 102.148438 169 102.5 169.050781 103.050781 170.148438 C 104.601562 173.199219 107.851562 175.5 111.25 175.949219 L 113.25 176.25 L 113.050781 179.148438 C 112.949219 181.5 113.148438 182.550781 114.25 184.800781 C 115.601562 187.550781 115.601562 187.601562 114.699219 189.300781 L 113.75 191 L 79.25 191 L 79.25 146.25 L 34.25 145.75 L 34.25 86.75 L 79.25 86.25 L 79.25 41.5 L 184.25 41.5 Z M 213.050781 88.25 C 214.398438 89.199219 215.75 90.75 216.601562 92.449219 L 218 95.101562 L 218 123 C 218 146.25 217.898438 150.949219 217.300781 151.148438 C 216.949219 151.300781 215.75 151.101562 214.699219 150.75 C 213.601562 150.351562 212.25 150.050781 211.648438 150 L 210.5 150 L 210.5 123.5 L 143 123.5 L 143 169.148438 L 141.148438 168.800781 C 140.101562 168.648438 138.398438 168.5 137.398438 168.5 L 135.5 168.5 L 135.5 132 C 135.5 92.351562 135.398438 93.949219 138.25 90.199219 C 138.898438 89.351562 140.398438 88.148438 141.601562 87.550781 C 143.75 86.5 143.898438 86.5 177.351562 86.601562 L 210.898438 86.75 Z M 180.5 142.75 L 180.5 154 L 200.050781 154 L 199 155.101562 C 197.75 156.398438 196 159.648438 196 160.601562 C 196 161.101562 195 161.199219 192 161.101562 L 188 160.898438 L 188 168.5 L 180.5 168.5 L 180.5 176.5 L 195.5 176.5 L 195.550781 171.851562 L 195.601562 167.25 L 196.351562 169.398438 C 196.800781 170.648438 198.351562 172.898438 200.050781 174.75 C 202.949219 177.800781 203 177.949219 203 180.699219 L 203 183.5 L 176.449219 183.5 C 152.449219 183.5 149.898438 183.398438 150.199219 182.699219 C 150.351562 182.25 150.5 170.550781 150.5 156.699219 L 150.5 131.5 L 180.5 131.5 Z M 203 138.75 L 203 146 L 188 146 L 188 131.5 L 203 131.5 Z M 218 152 C 218 152.25 217.898438 152.5 217.800781 152.5 C 217.648438 152.5 217.398438 152.25 217.25 152 C 217.101562 151.699219 217.199219 151.5 217.449219 151.5 C 217.75 151.5 218 151.699219 218 152 Z M 71.75 172.5 L 71.75 191 L 34.25 191 L 34.25 154 L 71.75 154 Z M 212.648438 157.949219 C 214.398438 158.648438 228.351562 170.601562 230.699219 173.398438 C 233.050781 176.300781 234.648438 179.351562 235.75 183.25 C 236.949219 187.300781 236.601562 195.648438 235.050781 199.398438 C 234.449219 200.898438 230.398438 207.851562 226 214.898438 L 218 227.75 L 218 243.5 L 150.5 243.5 L 150.5 236.5 L 180.398438 236.398438 L 210.25 236.25 L 210.5 219.5 C 210.800781 200.851562 210.898438 200.398438 214.398438 195.75 C 216.050781 193.601562 217.449219 192.398438 222.601562 188.898438 C 223.75 188.101562 223.75 188.101562 213.898438 178.148438 C 208.5 172.699219 203.800781 167.601562 203.5 166.851562 C 201.449219 161.300781 207.101562 155.851562 212.648438 157.949219 Z M 128 165 L 128 168.5 L 119.648438 168.5 C 110.25 168.5 109.5 168.25 109.5 165.101562 C 109.5 161.699219 110.101562 161.5 119.601562 161.5 L 128 161.5 Z M 142 177.601562 C 142.550781 178.199219 143 179.300781 143 180 C 143 180.699219 142.550781 181.800781 142 182.398438 C 141 183.449219 140.601562 183.5 131.75 183.5 C 122.898438 183.5 122.5 183.449219 121.5 182.398438 C 120.949219 181.800781 120.5 180.699219 120.5 180 C 120.5 179.300781 120.949219 178.199219 121.5 177.601562 C 122.5 176.550781 122.898438 176.5 131.75 176.5 C 140.601562 176.5 141 176.550781 142 177.601562 Z M 211.351562 187.851562 C 210.550781 188.648438 210.5 188.601562 210.5 187 C 210.5 185.398438 210.550781 185.351562 211.351562 186.148438 C 212.148438 186.949219 212.148438 187.050781 211.351562 187.851562 Z M 142 192.601562 C 142.550781 193.199219 143 194.300781 143 195 C 143 195.699219 142.550781 196.800781 142 197.398438 C 141 198.449219 140.601562 198.5 131.75 198.5 C 122.898438 198.5 122.5 198.449219 121.5 197.398438 C 120.949219 196.800781 120.5 195.699219 120.5 195 C 120.5 194.300781 120.949219 193.199219 121.5 192.601562 C 122.5 191.550781 122.898438 191.5 131.75 191.5 C 140.601562 191.5 141 191.550781 142 192.601562 Z M 206.699219 193.550781 C 203.550781 198.550781 203.300781 200.050781 203.101562 214.851562 L 202.949219 228.5 L 148.199219 228.5 L 144.550781 224.800781 L 140.898438 221.101562 L 142.398438 220.800781 C 144.851562 220.25 147.800781 217.699219 149.199219 214.898438 C 150.851562 211.550781 150.898438 208.601562 149.25 205.148438 L 148.050781 202.5 L 149.351562 199.699219 C 150.351562 197.449219 150.550781 196.351562 150.398438 194.199219 L 150.148438 191.5 L 208 191.5 Z M 142 207.601562 C 142.550781 208.199219 143 209.300781 143 210 C 143 210.699219 142.550781 211.800781 142 212.398438 C 141 213.449219 140.601562 213.5 131.75 213.5 C 122.898438 213.5 122.5 213.449219 121.5 212.398438 C 120.949219 211.800781 120.5 210.699219 120.5 210 C 120.5 209.300781 120.949219 208.199219 121.5 207.601562 C 122.5 206.550781 122.898438 206.5 131.75 206.5 C 140.601562 206.5 141 206.550781 142 207.601562 Z M 142 207.601562 "/>
<path style=" stroke:none;fill-rule:nonzero;fill:rgb(0%,0%,0%);fill-opacity:1;" d="M 86.75 49.101562 C 86.601562 49.5 86.550781 54.601562 86.601562 60.5 L 86.75 71.25 L 101.75 71.75 L 101.75 86.25 L 124.25 86.25 L 124.25 78.75 L 109.25 78.25 L 109.25 63.75 L 94.25 63.25 L 94.25 48.75 L 90.601562 48.601562 C 87.949219 48.5 86.898438 48.648438 86.75 49.101562 Z M 86.75 49.101562 "/>
<path style=" stroke:none;fill-rule:nonzero;fill:rgb(0%,0%,0%);fill-opacity:1;" d="M 116.75 49.101562 C 116.601562 49.5 116.550781 54.601562 116.601562 60.5 L 116.75 71.25 L 131.75 71.25 L 131.75 63.75 L 124.25 63.25 L 124.25 48.75 L 120.601562 48.601562 C 117.949219 48.5 116.898438 48.648438 116.75 49.101562 Z M 116.75 49.101562 "/>
<path style=" stroke:none;fill-rule:nonzero;fill:rgb(0%,0%,0%);fill-opacity:1;" d="M 131.699219 49.148438 C 131.550781 49.550781 131.5 51.300781 131.601562 53.050781 L 131.75 56.25 L 139.25 56.75 L 139.25 71.25 L 146.75 71.25 L 146.75 48.75 L 139.351562 48.601562 C 133.449219 48.5 131.949219 48.601562 131.699219 49.148438 Z M 131.699219 49.148438 "/>
<path style=" stroke:none;fill-rule:nonzero;fill:rgb(0%,0%,0%);fill-opacity:1;" d="M 154.25 49.148438 C 154.101562 49.5 154.050781 52.949219 154.101562 56.75 L 154.25 63.75 L 169.25 64.25 L 169.25 71.25 L 176.75 71.25 L 176.75 48.75 L 169.25 48.75 L 169.25 56 L 161.75 56 L 161.75 48.75 L 158.101562 48.601562 C 155.449219 48.5 154.398438 48.648438 154.25 49.148438 Z M 154.25 49.148438 "/>
<path style=" stroke:none;fill-rule:nonzero;fill:rgb(0%,0%,0%);fill-opacity:1;" d="M 86.699219 79.148438 C 86.550781 79.550781 86.5 82.949219 86.601562 86.648438 L 86.75 93.5 L 79.25 93.601562 L 71.75 93.75 L 71.75 101.25 L 79.25 101.75 L 79.25 115.75 L 71.75 116.25 L 71.75 123.75 L 86.75 123.75 L 86.75 101.75 L 94.25 101.25 L 94.25 78.75 L 90.601562 78.601562 C 87.851562 78.5 86.898438 78.601562 86.699219 79.148438 Z M 86.699219 79.148438 "/>
<path style=" stroke:none;fill-rule:nonzero;fill:rgb(0%,0%,0%);fill-opacity:1;" d="M 41.75 94.101562 C 41.601562 94.5 41.550781 99.601562 41.601562 105.5 L 41.75 116.25 L 56.75 116.75 L 56.75 138.75 L 64.25 138.75 L 64.25 108.75 L 49.25 108.25 L 49.25 93.75 L 45.601562 93.601562 C 42.949219 93.5 41.898438 93.648438 41.75 94.101562 Z M 41.75 94.101562 "/>
<path style=" stroke:none;fill-rule:nonzero;fill:rgb(0%,0%,0%);fill-opacity:1;" d="M 56.699219 94.148438 C 56.550781 94.550781 56.5 96.300781 56.601562 98.050781 L 56.75 101.25 L 64.25 101.25 L 64.25 93.75 L 60.601562 93.601562 C 57.851562 93.5 56.898438 93.648438 56.699219 94.148438 Z M 56.699219 94.148438 "/>
<path style=" stroke:none;fill-rule:nonzero;fill:rgb(0%,0%,0%);fill-opacity:1;" d="M 113.351562 93.800781 C 113.148438 94 113 97.398438 113 101.300781 L 113 108.5 L 103.648438 108.601562 L 94.25 108.75 L 94.25 116.25 L 120.25 116.25 L 120.25 93.75 L 117 93.601562 C 115.199219 93.5 113.550781 93.601562 113.351562 93.800781 Z M 113.351562 93.800781 "/>
<path style=" stroke:none;fill-rule:nonzero;fill:rgb(0%,0%,0%);fill-opacity:1;" d="M 41.75 124.148438 C 41.601562 124.5 41.550781 127.949219 41.601562 131.75 L 41.75 138.75 L 49.25 138.75 L 49.25 123.75 L 45.601562 123.601562 C 42.949219 123.5 41.898438 123.648438 41.75 124.148438 Z M 41.75 124.148438 "/>
<path style=" stroke:none;fill-rule:nonzero;fill:rgb(0%,0%,0%);fill-opacity:1;" d="M 113.199219 124.148438 C 113.050781 124.550781 113 126.300781 113.101562 128.050781 L 113.25 131.25 L 120.25 131.25 L 120.25 123.75 L 116.851562 123.601562 C 114.351562 123.5 113.398438 123.648438 113.199219 124.148438 Z M 113.199219 124.148438 "/>
<path style=" stroke:none;fill-rule:nonzero;fill:rgb(0%,0%,0%);fill-opacity:1;" d="M 86.699219 176.648438 C 86.550781 177.050781 86.5 178.800781 86.601562 180.550781 L 86.75 183.75 L 101.75 183.75 L 101.75 176.25 L 94.351562 176.101562 C 88.449219 176 86.949219 176.101562 86.699219 176.648438 Z M 86.699219 176.648438 "/>
<path style=" stroke:none;fill-rule:nonzero;fill:rgb(0%,0%,0%);fill-opacity:1;" d="M 173.199219 94.148438 C 173.050781 94.550781 173 96.300781 173.101562 98.050781 L 173.25 101.25 L 187.75 101.25 L 187.75 93.75 L 180.601562 93.601562 C 174.898438 93.5 173.449219 93.601562 173.199219 94.148438 Z M 173.199219 94.148438 "/>
<path style=" stroke:none;fill-rule:nonzero;fill:rgb(0%,0%,0%);fill-opacity:1;" d="M 144 95.101562 C 141.851562 97.449219 143.5 101 146.75 101 C 148.800781 101 150.5 99.398438 150.5 97.5 C 150.5 94.351562 146.199219 92.75 144 95.101562 Z M 144 95.101562 "/>
<path style=" stroke:none;fill-rule:nonzero;fill:rgb(0%,0%,0%);fill-opacity:1;" d="M 159 95.101562 C 156.851562 97.449219 158.5 101 161.75 101 C 163.800781 101 165.5 99.398438 165.5 97.5 C 165.5 94.351562 161.199219 92.75 159 95.101562 Z M 159 95.101562 "/>
<path style=" stroke:none;fill-rule:nonzero;fill:rgb(0%,0%,0%);fill-opacity:1;" d="M 165.5 142.25 L 165.5 146 L 158 146 L 158 154 L 173 154 L 173 138.5 L 165.5 138.5 Z M 165.5 142.25 "/>
<path style=" stroke:none;fill-rule:nonzero;fill:rgb(0%,0%,0%);fill-opacity:1;" d="M 158 165 L 158 169 L 165.5 169 L 165.5 176.5 L 173 176.5 L 173 161 L 158 161 Z M 158 165 "/>
<path style=" stroke:none;fill-rule:nonzero;fill:rgb(0%,0%,0%);fill-opacity:1;" d="M 192.949219 135.949219 C 190.351562 138.050781 192.101562 142.5 195.5 142.5 C 197.699219 142.5 199.199219 140.949219 199.199219 138.75 C 199.199219 136.550781 197.699219 135 195.5 135 C 194.75 135 193.601562 135.398438 192.949219 135.949219 Z M 192.949219 135.949219 "/>
<path style=" stroke:none;fill-rule:nonzero;fill:rgb(0%,0%,0%);fill-opacity:1;" d="M 158.199219 214.148438 C 158.050781 214.550781 158 216.300781 158.101562 218.050781 L 158.25 221.25 L 195.25 221.25 L 195.25 213.75 L 176.851562 213.601562 C 161.699219 213.5 158.449219 213.601562 158.199219 214.148438 Z M 158.199219 214.148438 "/>
<path style=" stroke:none;fill-rule:nonzero;fill:rgb(0%,0%,0%);fill-opacity:1;" d="M 12 198.75 L 12 214 L 26.898438 213.898438 L 41.75 213.75 L 41.75 206.25 L 19.25 205.75 L 19.25 183.75 L 15.648438 183.601562 L 12 183.449219 Z M 12 198.75 "/>
</g>
</svg>
