<?xml version="1.0" standalone="no"?>
<!DOCTYPE svg PUBLIC "-//W3C//DTD SVG 20010904//EN"
 "http://www.w3.org/TR/2001/REC-SVG-20010904/DTD/svg10.dtd">
<svg version="1.0" xmlns="http://www.w3.org/2000/svg"
 width="512.000000pt" height="512.000000pt" viewBox="0 0 512.000000 512.000000"
 preserveAspectRatio="xMidYMid meet">

<g transform="translate(0.000000,512.000000) scale(0.100000,-0.100000)"
fill="#000000" stroke="none">
<path d="M240 4445 l0 -306 73 3 72 3 0 220 0 220 225 5 225 5 0 75 0 75 -297
3 -298 2 0 -305z"/>
<path d="M3534 4737 c-3 -8 -4 -43 -2 -78 l3 -64 225 -5 225 -5 0 -220 0 -220
75 0 75 0 0 300 0 300 -298 3 c-244 2 -298 0 -303 -11z"/>
<path d="M535 4438 c-3 -7 -4 -751 -3 -1653 l3 -1640 870 -3 871 -2 18 -34
c18 -35 18 -35 -8 -87 -42 -84 -32 -165 29 -245 37 -49 97 -73 200 -80 l90 -6
128 -127 127 -126 0 -167 0 -168 825 0 825 0 0 212 0 212 145 232 c163 261
186 306 215 419 25 102 25 181 -1 286 -41 168 -114 280 -265 409 l-94 82 0
632 c0 696 0 690 -62 788 -60 95 -153 153 -271 168 -39 5 -133 10 -207 10
l-135 0 0 447 0 448 -1648 3 c-1313 2 -1649 0 -1652 -10z m900 -518 l0 -370
-375 0 -375 0 0 370 0 370 375 0 375 0 0 -370z m2250 0 l0 -370 -360 0 c-198
0 -393 -5 -432 -10 -118 -15 -211 -73 -271 -168 -60 -94 -62 -112 -62 -589 l0
-433 -225 0 -224 0 -3 73 -3 72 -70 0 -70 0 0 -150 0 -150 298 -3 297 -2 0
-69 0 -69 -177 -4 c-146 -4 -184 -8 -213 -22 -44 -23 -88 -63 -106 -98 -14
-27 -17 -28 -97 -28 l-82 0 0 297 0 298 -225 0 -225 0 0 -75 0 -75 150 -5 150
-5 0 -295 0 -295 157 -3 c151 -2 158 -3 169 -25 31 -61 96 -107 164 -116 l40
-6 -4 -58 c-2 -47 2 -68 24 -113 27 -55 27 -56 9 -90 l-19 -34 -345 0 -345 0
0 447 0 448 -450 5 -450 5 0 590 0 590 450 5 450 5 0 448 0 447 1050 0 1050 0
0 -370z m576 -565 c27 -19 54 -50 71 -84 l28 -53 0 -558 c0 -465 -2 -559 -14
-563 -7 -3 -31 1 -52 8 -22 8 -49 14 -61 15 l-23 0 0 265 0 265 -675 0 -675 0
0 -456 0 -457 -37 7 c-21 3 -55 6 -75 6 l-38 0 0 730 c0 793 -2 761 55 836 13
17 43 41 67 53 43 21 46 21 715 19 l671 -3 43 -30z m-651 -1090 l0 -225 195 0
196 0 -21 -22 c-25 -26 -60 -91 -60 -110 0 -10 -20 -12 -80 -10 l-80 4 0 -76
0 -76 -75 0 -75 0 0 -80 0 -80 150 0 150 0 1 93 1 92 15 -43 c9 -25 40 -70 74
-107 58 -61 59 -64 59 -119 l0 -56 -531 0 c-480 0 -531 2 -525 16 3 9 6 243 6
520 l0 504 300 0 300 0 0 -225z m450 80 l0 -145 -150 0 -150 0 0 145 0 145
150 0 150 0 0 -145z m300 -265 c0 -5 -2 -10 -4 -10 -3 0 -8 5 -11 10 -3 6 -1
10 4 10 6 0 11 -4 11 -10z m-2925 -410 l0 -370 -375 0 -375 0 0 370 0 370 375
0 375 0 0 -370z m2818 291 c35 -14 314 -253 361 -309 47 -58 79 -119 101 -197
24 -81 17 -248 -14 -323 -12 -30 -93 -169 -181 -310 l-160 -257 0 -157 0 -158
-675 0 -675 0 0 70 0 70 598 2 597 3 5 335 c6 373 8 382 78 475 33 43 61 67
164 137 23 16 23 16 -174 215 -108 109 -202 211 -208 226 -41 111 72 220 183
178z m-1693 -141 l0 -70 -167 0 c-188 0 -203 5 -203 68 0 68 12 72 202 72
l168 0 0 -70z m280 -252 c11 -12 20 -34 20 -48 0 -14 -9 -36 -20 -48 -20 -21
-28 -22 -205 -22 -177 0 -185 1 -205 22 -11 12 -20 34 -20 48 0 14 9 36 20 48
20 21 28 22 205 22 177 0 185 -1 205 -22z m1387 -205 c-16 -16 -17 -15 -17 17
0 32 1 33 17 17 16 -16 16 -18 0 -34z m-1387 -95 c11 -12 20 -34 20 -48 0 -14
-9 -36 -20 -48 -20 -21 -28 -22 -205 -22 -177 0 -185 1 -205 22 -11 12 -20 34
-20 48 0 14 9 36 20 48 20 21 28 22 205 22 177 0 185 -1 205 -22z m1294 -19
c-63 -100 -68 -130 -72 -426 l-3 -273 -547 0 -548 0 -73 74 -73 74 30 6 c49
11 108 62 136 118 33 67 34 126 1 195 l-24 53 26 56 c20 45 24 67 21 110 l-5
54 579 0 578 0 -26 -41z m-1294 -281 c11 -12 20 -34 20 -48 0 -14 -9 -36 -20
-48 -20 -21 -28 -22 -205 -22 -177 0 -185 1 -205 22 -11 12 -20 34 -20 48 0
14 9 36 20 48 20 21 28 22 205 22 177 0 185 -1 205 -22z"/>
<path d="M1735 4138 c-3 -8 -4 -110 -3 -228 l3 -215 150 -5 150 -5 0 -145 0
-145 225 0 225 0 0 75 0 75 -150 5 -150 5 0 145 0 145 -150 5 -150 5 0 145 0
145 -73 3 c-53 2 -74 -1 -77 -10z"/>
<path d="M2335 4138 c-3 -8 -4 -110 -3 -228 l3 -215 150 0 150 0 0 75 0 75
-75 5 -75 5 0 145 0 145 -73 3 c-53 2 -74 -1 -77 -10z"/>
<path d="M2634 4137 c-3 -8 -4 -43 -2 -78 l3 -64 75 -5 75 -5 0 -145 0 -145
75 0 75 0 0 225 0 225 -148 3 c-118 2 -148 0 -153 -11z"/>
<path d="M3085 4137 c-3 -7 -4 -76 -3 -152 l3 -140 150 -5 150 -5 0 -70 0 -70
75 0 75 0 0 225 0 225 -75 0 -75 0 0 -73 0 -72 -75 0 -75 0 0 72 0 73 -73 3
c-53 2 -74 -1 -77 -11z"/>
<path d="M1734 3537 c-3 -8 -4 -76 -2 -150 l3 -137 -150 -2 -150 -3 0 -75 0
-75 75 -5 75 -5 0 -140 0 -140 -75 -5 -75 -5 0 -75 0 -75 150 0 150 0 0 220 0
220 75 5 75 5 0 225 0 225 -73 3 c-55 2 -74 0 -78 -11z"/>
<path d="M835 3238 c-3 -8 -4 -110 -3 -228 l3 -215 150 -5 150 -5 0 -220 0
-220 75 0 75 0 0 300 0 300 -150 5 -150 5 0 145 0 145 -73 3 c-53 2 -74 -1
-77 -10z"/>
<path d="M1134 3237 c-3 -8 -4 -43 -2 -78 l3 -64 75 0 75 0 0 75 0 75 -73 3
c-55 2 -74 -1 -78 -11z"/>
<path d="M2267 3244 c-4 -4 -7 -72 -7 -150 l0 -144 -187 -2 -188 -3 0 -75 0
-75 260 0 260 0 0 225 0 225 -65 3 c-36 2 -69 0 -73 -4z"/>
<path d="M835 2637 c-3 -7 -4 -76 -3 -152 l3 -140 75 0 75 0 0 150 0 150 -73
3 c-53 2 -74 -1 -77 -11z"/>
<path d="M2264 2637 c-3 -8 -4 -43 -2 -78 l3 -64 70 0 70 0 0 75 0 75 -68 3
c-50 2 -69 -1 -73 -11z"/>
<path d="M1734 1587 c-3 -8 -4 -43 -2 -78 l3 -64 150 0 150 0 0 75 0 75 -148
3 c-118 2 -148 0 -153 -11z"/>
<path d="M3464 3237 c-3 -8 -4 -43 -2 -78 l3 -64 145 0 145 0 0 75 0 75 -143
3 c-114 2 -143 0 -148 -11z"/>
<path d="M2880 3218 c-43 -47 -10 -118 55 -118 41 0 75 32 75 70 0 63 -86 95
-130 48z"/>
<path d="M3180 3218 c-43 -47 -10 -118 55 -118 41 0 75 32 75 70 0 63 -86 95
-130 48z"/>
<path d="M3310 2275 l0 -75 -75 0 -75 0 0 -80 0 -80 150 0 150 0 0 155 0 155
-75 0 -75 0 0 -75z"/>
<path d="M3160 1820 l0 -80 75 0 75 0 0 -75 0 -75 75 0 75 0 0 155 0 155 -150
0 -150 0 0 -80z"/>
<path d="M3859 2401 c-52 -42 -17 -131 51 -131 44 0 74 31 74 75 0 44 -30 75
-74 75 -15 0 -38 -8 -51 -19z"/>
<path d="M3164 837 c-3 -8 -4 -43 -2 -78 l3 -64 370 0 370 0 0 75 0 75 -368 3
c-303 2 -368 0 -373 -11z"/>
<path d="M240 1145 l0 -305 298 2 297 3 0 75 0 75 -225 5 -225 5 0 220 0 220
-72 3 -73 3 0 -306z"/>
</g>
</svg>
